<?xml version="1.0" encoding="utf-8"?>
<!-- Generator: Adobe Illustrator 16.0.0, SVG Export Plug-In . SVG Version: 6.00 Build 0)  -->
<!DOCTYPE svg PUBLIC "-//W3C//DTD SVG 1.1//EN" "http://www.w3.org/Graphics/SVG/1.1/DTD/svg11.dtd">
<svg version="1.1" id="Layer_1" xmlns="http://www.w3.org/2000/svg" xmlns:xlink="http://www.w3.org/1999/xlink" x="0px" y="0px"
	 width="2000px" height="2000px" viewBox="0 0 2000 2000" enable-background="new 0 0 2000 2000" xml:space="preserve">
<g>
	<path fill="#D4001D" d="M1472.881,999.999c0,62.021-11.942,121.311-33.715,175.572c-30.311,75.904-79.844,142.106-142.463,192.67
		c-64.21,51.836-142.348,87.18-227.84,99.607c-0.052,0-0.052,0-0.116,0c-22.431,3.336-45.407,5.029-68.749,5.029
		c-53.17,0-104.338-8.791-152.053-24.978c-37.644-12.791-73.237-30.188-105.972-51.591
		c-101.673-66.265-176.302-170.723-203.518-293.003c-7.402-33.225-11.335-67.782-11.335-103.247v-0.061
		c0-89.301,24.73-172.843,67.773-244.075c82.754-137.139,233.23-228.804,405.104-228.804c24.916,0,49.35,1.94,73.173,5.637
		c73.963,11.458,142.291,40.134,200.792,81.727c15.643,11.151,30.615,23.22,44.745,36.13
		c84.267,76.935,140.589,183.879,151.984,303.977C1472.149,969.564,1472.881,984.662,1472.881,999.999z"/>
	<g>
		<path fill="#FF5A3C" d="M1073.171,532.757c-6.547,5.517-13.034,10.734-19.4,15.215c-73.478,51.354-153.381,91.184-233.35,128.895
			c-68.99,32.551-146.469,66.864-225.527,79.057c-43.042,71.232-67.773,154.774-67.773,244.075v0.061
			c8.116,1.634,16.425,3.031,24.666,4.85c23.221,4.97,48.747,12.063,73.117,13.278c99.424,5.032,199.824-14.914,290.583-36.797
			c95.783-23.101,172.416-99.851,241.41-166.357c31.101-29.955,53.652-65.72,73.903-104.462
			c14.731-28.068,33.766-62.44,43.163-96.087C1215.462,572.891,1147.134,544.215,1073.171,532.757z M736.153,952.104
			c-5.451,9.155-27.585,11.157-36.375,12.854c-11.585,2.302-25.642,1.333-37.708,0.789c-11.521-0.606-26.196-1.517-34.136-10.674
			c-12.363-14.184,3.886-21.033,16.675-21.033l-4.553,1.575c19.465-1.395,37.477-8.365,57.663-8.365
			C708.934,927.25,749.608,929.55,736.153,952.104z M1046.863,636.247c-9.939,19.336-31.832,32.37-50.016,44.496
			c-15.463,10.369-47.41,33.955-68.083,23.161c-26.437-13.82,25.942-40.862,34.862-46.319c10.786-6.544,22.547-12.789,33.221-19.825
			c4.483-3.029,9.396-5.577,14.001-8.914c4.303-3.09,8.185-8.789,12.672-10.79h-6.061c1.999-1.455,3.517-3.152,4.668-5.149
			c6.479-1.763,24.004-10.613,29.282-3.819C1056.38,615.57,1049.704,630.667,1046.863,636.247z"/>
		<path fill="#FF5A3C" d="M664.309,1191.7c0.546,0.12,1.101,0.241,1.642,0.301c0.181,0.186,0.421,0.243,0.602,0.486L664.309,1191.7z
			"/>
		<path fill="#FF5A3C" d="M1318.708,650.613c-4.974,8.425-9.341,16.976-12.857,23.523c-10.42,19.462-21.584,38.498-31.102,59.111
			c-19.821,42.921-25.577,90.272-32.609,137.92c-7.338,49.533-14.25,102.035-42.381,144.41
			c-33.47,50.321-89.302,42.016-144.41,42.016c-52.144,0-110.648-6.791-159.142,8.73c-50.441,16.127-90.999,49.715-143.925,59.531
			c-74.814,13.887-145.197-4.785-213.826-22.549c27.215,122.28,101.845,226.738,203.518,293.003
			c61.781-6.848,125.01-38.379,169.024-68.989c37.592-26.13,64.442-66.75,109.191-82.084c46.254-15.952,99.48-12.07,148.469-16.739
			c51.532-4.849,108.275-12.369,151.924-39.101c41.289-25.221,71.122-65.538,90.518-109.553
			c14.25-32.192,27.279-63.294,43.163-94.58c4.918-9.636,10.188-20.669,16.43-30.674
			C1459.297,834.492,1402.975,727.548,1318.708,650.613z M817.996,1193.093c-10.244,2.485-20.066,10.489-29.218,15.461
			c-9.646,5.212-19.881,8.062-30.491,10.426c-25.594,5.821-54.082,0.727-78.03-5.88c-8.365-2.305-31.836-7.033-29.463-20.492
			c4.303-2.425,9.943-1.818,14.917-1.518c-0.064,0.546,0.056,0.791,0.241,0.911c58.015,11.701,113.425-20.432,162.834-41.95
			c13.154-5.7,27.344-9.277,42.196-10.674c14.856-1.333,30.865,1.82,44.806-1.333
			C918.396,1190.183,843.827,1167.813,817.996,1193.093z M1357.508,916.579c-7.948,13.642-31.226,8.488-38.258-3.761
			c-6.122-10.424-2.967-26.856-2.301-38.615c0.903-16.007,1.879-32.375,0.606-48.503l-0.73,12.126c0-6.242-0.301-11.096-2.3-16.49
			c-1.818-4.908-4.428-9.941-3.031-16.067c3.271-14.303,14.908-7.151,20.432,1.516c12.729,19.826,20.974,46.076,25.947,69.54
			C1359.747,885.296,1362.718,907.79,1357.508,916.579z"/>
		<path fill="#FF5A3C" d="M666.553,1192.487l-2.244-0.787c0.546,0.12,1.101,0.241,1.642,0.301
			C666.132,1192.187,666.373,1192.244,666.553,1192.487z"/>
		<path fill="#FF5A3C" d="M1439.166,1175.571c-30.311,75.904-79.844,142.106-142.463,192.67c-13.403-2.486-25.896,1.331-38.624,4.43
			c-14.366,3.388-30.009,7.515-43.589,12.483c-22.676,8.245-42.807,20.492-61.355,34.497c-18.188,13.64-36.432,25.646-55.535,35.77
			c-9.271,4.97-18.974,8.851-28.736,12.428c-0.052,0-0.052,0-0.116,0c-22.431,3.336-45.407,5.029-68.749,5.029
			c-53.17,0-104.338-8.791-152.053-24.978c21.949-10.062,43.292-21.337,64.145-29.764c24.189-9.821,51.537-15.218,74.51-24.857
			c23.217-9.702,46.258-19.766,68.994-28.918c9.513-3.816,18.854-8.124,27.765-12.915c8.847-4.727,18.489-12.245,27.946-15.097
			c8.365-7.878,21.398-15.096,31.952-21.702c8.425-5.215,17.457-11.764,26.733-16.61c21.945-11.402,44.561-19.645,68.143-25.04
			c26.433-6.063,52.195-11.157,77.725-19.34c26.373-8.489,46.563-21.644,69.115-37.465
			C1403.946,1202.911,1419.649,1187.333,1439.166,1175.571z"/>
	</g>
</g>
</svg>
